<?xml version="1.0" encoding="UTF-8" standalone="no"?>
<!-- Generator: Adobe Illustrator 19.1.0, SVG Export Plug-In . SVG Version: 6.00 Build 0)  -->
<svg id="Layer_1" style="enable-background:new -97 220.9 400 400" xmlns="http://www.w3.org/2000/svg" xml:space="preserve" height="400px" viewBox="-97 220.9 400 400" width="400px" version="1.1" y="0px" x="0px" >
<!--<style type="text/css">-->
<!--.st0{fill:#2d2d2d;}-->
<!--</style>-->
	<path class="st0" d="m203 247.7c-95.6-55.2-217.9-22.5-273.2 73.2-55.2 95.7-22.5 218 73.2 273.2 95.6 55.2 217.9 22.4 273.2-73.2 55.2-95.7 22.4-218-73.2-273.2zm-25 263.2c0 16.6-13.4 30-30 30h-90c-16.6 0-30-13.4-30-30v-180c0-16.6 13.4-30 30-30h90c16.6 0 30 13.4 30 30v180zm-41.8-138.8h-66.4c-6.5 0-11.8-5-11.8-11.3 0-6.2 5.3-11.3 11.8-11.3h66.5c6.5 0 11.8 5.1 11.8 11.3-0.1 6.3-5.4 11.3-11.9 11.3zm0-30h-66.4c-6.5 0-11.8-5-11.8-11.3 0-6.2 5.3-11.3 11.8-11.3h66.5c6.5 0 11.8 5 11.8 11.3-0.1 6.3-5.4 11.3-11.9 11.3zm0 60h-66.4c-6.5 0-11.8-5-11.8-11.2s5.3-11.2 11.8-11.2h66.5c6.5 0 11.8 5 11.8 11.2-0.1 6.2-5.4 11.2-11.9 11.2zm-48.2 78.8c0 8.3-6.7 15-15 15s-15-6.7-15-15 6.7-15 15-15 15 6.7 15 15z"/>
</svg>
